<?xml version="1.0" standalone="no"?>
<!DOCTYPE svg PUBLIC "-//W3C//DTD SVG 20010904//EN"
 "http://www.w3.org/TR/2001/REC-SVG-20010904/DTD/svg10.dtd">
<svg version="1.0" xmlns="http://www.w3.org/2000/svg"
 width="512.000000pt" height="512.000000pt" viewBox="0 0 512.000000 512.000000"
 preserveAspectRatio="xMidYMid meet">
<metadata>
Created by potrace 1.16, written by Peter Selinger 2001-2019
</metadata>
<g transform="translate(0.000000,512.000000) scale(0.100000,-0.100000)"
fill="#000000" stroke="none">
<path d="M2379 4239 c-198 -15 -391 -70 -598 -170 -229 -110 -362 -216 -462
-368 -61 -93 -71 -137 -39 -163 50 -41 143 -17 369 96 241 121 394 166 632
187 152 14 326 3 444 -27 158 -41 303 -141 371 -258 60 -102 77 -193 71 -376
-9 -265 -63 -418 -191 -546 -111 -111 -171 -136 -470 -195 -83 -16 -161 -36
-173 -44 -33 -22 -38 -68 -14 -118 45 -93 148 -127 401 -134 199 -6 300 9 445
66 279 108 540 387 640 685 40 121 55 215 55 357 0 273 -79 474 -255 652 -207
210 -502 328 -890 356 -154 12 -181 12 -336 0z"/>
<path d="M2125 3571 c-91 -52 -192 -175 -283 -341 -159 -290 -360 -929 -442
-1405 -47 -274 -63 -593 -39 -785 20 -164 61 -186 294 -160 185 22 300 81 335
174 6 16 22 235 36 485 26 492 29 517 114 916 101 479 129 661 136 885 7 220
0 254 -61 258 -29 2 -53 -5 -90 -27z"/>
</g>
</svg>
