<?xml version="1.0" standalone="no"?>
<!DOCTYPE svg PUBLIC "-//W3C//DTD SVG 20010904//EN"
 "http://www.w3.org/TR/2001/REC-SVG-20010904/DTD/svg10.dtd">
<svg version="1.0" xmlns="http://www.w3.org/2000/svg"
 width="512.000000pt" height="512.000000pt" viewBox="0 0 512.000000 512.000000"
 preserveAspectRatio="xMidYMid meet">
<metadata>
Created by potrace 1.14, written by Peter Selinger 2001-2017
</metadata>
<g transform="translate(0.000000,512.000000) scale(0.100000,-0.100000)"
fill="#000000" stroke="none">
<path d="M2378 5115 c-1 -2 -39 -6 -83 -10 -44 -4 -82 -8 -85 -10 -3 -2 -33
-7 -65 -10 -87 -10 -345 -77 -461 -120 -428 -159 -773 -401 -1089 -765 -257
-296 -482 -772 -550 -1165 -42 -243 -53 -541 -29 -755 102 -877 626 -1624
1411 -2014 285 -142 569 -221 910 -255 78 -8 441 -6 498 3 17 2 50 7 75 10 72
8 248 45 342 72 312 87 654 263 908 467 164 132 327 302 450 467 38 52 73 100
78 105 19 25 124 209 165 290 118 234 203 511 242 785 2 14 7 45 10 70 13 88
12 444 -1 550 -18 146 -20 164 -39 255 -78 380 -263 771 -510 1076 -109 135
-271 299 -375 379 -24 19 -53 43 -65 53 -49 44 -256 174 -377 237 -227 117
-493 210 -703 245 -16 3 -41 7 -55 10 -14 3 -52 8 -85 11 -33 4 -64 9 -69 12
-10 6 -442 13 -448 7z"/>
</g>
</svg>
